<svg width="28" height="28" viewBox="0 0 28 28" fill="none" xmlns="http://www.w3.org/2000/svg">
<path d="M14.0157 0.666626C6.67437 0.666626 0.698061 6.63779 0.695394 13.9791C0.694061 16.3258 1.30871 18.6167 2.47404 20.6354L0.666748 27.3333L7.64331 25.6849C9.58864 26.7462 11.7786 27.3033 14.0079 27.3046H14.0131C21.3531 27.3046 27.3268 21.3321 27.3308 13.9921C27.3335 10.4335 25.9496 7.0876 23.435 4.57027C20.9203 2.05427 17.5784 0.667959 14.0157 0.666626ZM14.0131 3.33329C16.8611 3.33463 19.5376 4.44502 21.5496 6.45569C23.5616 8.46902 24.6668 11.1442 24.6641 13.9895C24.6615 19.8615 19.8852 24.638 14.0105 24.638C12.2332 24.6366 10.4726 24.1904 8.92196 23.3437L8.02352 22.8541L7.03133 23.0885L4.40633 23.7083L5.04696 21.3281L5.33602 20.2604L4.78394 19.302C3.85327 17.6914 3.36073 15.8498 3.36206 13.9791C3.36473 8.10979 8.14244 3.33329 14.0131 3.33329ZM9.30217 7.83329C9.0795 7.83329 8.71948 7.91663 8.41414 8.24996C8.10881 8.58196 7.24748 9.38606 7.24748 11.0234C7.24748 12.6607 8.44019 14.2434 8.60685 14.4661C8.77219 14.6874 10.9091 18.1536 14.2917 19.4869C17.1024 20.5949 17.6733 20.3763 18.2839 20.3203C18.8946 20.2656 20.254 19.5169 20.5313 18.7395C20.8087 17.9622 20.8093 17.2935 20.7266 17.1562C20.644 17.0175 20.422 16.9349 20.0886 16.7682C19.7566 16.6015 18.1205 15.7981 17.8152 15.6875C17.5099 15.5768 17.2865 15.5208 17.0652 15.8541C16.8439 16.1875 16.2078 16.9349 16.0131 17.1562C15.8184 17.3789 15.6251 17.4088 15.2917 17.2421C14.9584 17.0741 13.8867 16.7218 12.6147 15.5885C11.6253 14.7072 10.9578 13.6198 10.7631 13.2864C10.5698 12.9544 10.7449 12.7721 10.9115 12.6067C11.0609 12.4574 11.2423 12.2181 11.4089 12.0234C11.5743 11.8287 11.6316 11.69 11.7423 11.4687C11.8529 11.2474 11.7963 11.052 11.7136 10.8854C11.631 10.7187 10.9836 9.07529 10.6876 8.41663C10.4382 7.86329 10.1749 7.85044 9.93758 7.8411C9.74425 7.8331 9.5235 7.83329 9.30217 7.83329Z" fill="white"/>
</svg>
